<?xml version="1.0" encoding="UTF-8"?>
<svg id="Capa_2" data-name="Capa 2" xmlns="http://www.w3.org/2000/svg" viewBox="0 0 512 407.37">
  <defs>
    <style>
      .cls-1 {
        fill: #fff;
        strokeWidth: 0px;
      }
    </style>
  </defs>
  <g id="Layer_1" data-name="Layer 1">
    <path class="cls-1" d="M270.35,124.29c-18.79-1.8-37.85-.88-56.79-1.14-.26,0-.52.32-.89.56v63.68c1.25.12,2.2.3,3.16.29,14.46-.15,28.95.1,43.39-.67,6.5-.35,13.13-2.13,19.29-4.38,8.66-3.17,14.78-9.4,17.49-18.49,5.94-19.89-4.72-37.84-25.65-39.85ZM289.13,219.02c-6.66-2.72-14.02-4.71-21.16-5.06-17.1-.83-34.26-.44-51.4-.69-3.26-.05-4.3,1.01-4.28,4.27.12,21.09.06,42.17.08,63.26,0,1.12.25,2.24.36,3.14,19.37,0,38.48.44,57.55-.24,6.6-.23,13.46-2.42,19.57-5.14,12.86-5.72,17.83-16.8,17.74-30.29-.08-13.45-5.69-24.04-18.46-29.25ZM289.13,219.02c-6.66-2.72-14.02-4.71-21.16-5.06-17.1-.83-34.26-.44-51.4-.69-3.26-.05-4.3,1.01-4.28,4.27.12,21.09.06,42.17.08,63.26,0,1.12.25,2.24.36,3.14,19.37,0,38.48.44,57.55-.24,6.6-.23,13.46-2.42,19.57-5.14,12.86-5.72,17.83-16.8,17.74-30.29-.08-13.45-5.69-24.04-18.46-29.25ZM259.22,187.01c6.5-.35,13.13-2.13,19.29-4.38,8.66-3.17,14.78-9.4,17.49-18.49,5.94-19.89-4.72-37.84-25.65-39.85-18.79-1.8-37.85-.88-56.79-1.14-.26,0-.52.32-.89.56v63.68c1.25.12,2.2.3,3.16.29,14.46-.15,28.95.1,43.39-.67ZM475.89,167.8c-9.61-15-14.01-31.83-16.82-49.13-3.46-21.23-4.39-42.63-3.53-64.11C456.74,24.88,433.81-.15,402.23.04,304.92.63,207.6.69,110.29,0c-31.97-.22-55.31,25.13-53.86,56.07,1.33,28.65-.52,57.16-8.5,84.94-3.41,11.89-8.22,23.17-16.23,32.83-8.25,9.96-18.8,15.65-31.7,16.97v25.94c15.5,1.55,27.14,9.37,35.56,22.13,10.01,15.16,14.51,32.3,17.39,49.93,3.46,21.22,4.37,42.6,3.56,64.07-.43,11.26,2.48,22.53,8.71,31.96,5.44,8.22,13.36,15.11,22.54,18.83,7.8,3.16,15.57,3.72,23.91,3.7,65.69-.15,131.39-.06,197.08-.05,30.51,0,61.03,0,91.54,0,4.5,0,9.02,0,13.47-.69,26.43-4.1,42.58-29.86,41.77-55.22-.87-27.32.54-54.47,7.5-81.07,3.13-11.94,7.52-23.38,14.85-33.49,8.44-11.66,19.64-18.66,34.13-20.1v-25.94c-15.92-1.61-27.65-9.81-36.11-23.01ZM319.91,297.76c-12.77,9.05-27.34,13.32-42.68,13.63-31.64.65-63.3.38-94.95.63-4.2.04-4.38-2.15-4.37-5.34.06-41.89.04-83.77.04-125.66,0-26.76.03-53.52-.05-80.28,0-3.2.16-5.36,4.38-5.33,30.15.23,60.31.07,90.46.46,14.08.19,27.39,3.97,38.81,12.53,16.82,12.6,23.31,29.79,19.28,50.08-3.89,19.56-16.19,32.25-35.76,37.51-.66.17-1.29.48-1.39.55,8.38,3.38,17.65,5.69,25.37,10.48,31.82,19.71,32.05,68.66.86,90.74ZM289.13,219.02c-6.66-2.72-14.02-4.71-21.16-5.06-17.1-.83-34.26-.44-51.4-.69-3.26-.05-4.3,1.01-4.28,4.27.12,21.09.06,42.17.08,63.26,0,1.12.25,2.24.36,3.14,19.37,0,38.48.44,57.55-.24,6.6-.23,13.46-2.42,19.57-5.14,12.86-5.72,17.83-16.8,17.74-30.29-.08-13.45-5.69-24.04-18.46-29.25ZM259.22,187.01c6.5-.35,13.13-2.13,19.29-4.38,8.66-3.17,14.78-9.4,17.49-18.49,5.94-19.89-4.72-37.84-25.65-39.85-18.79-1.8-37.85-.88-56.79-1.14-.26,0-.52.32-.89.56v63.68c1.25.12,2.2.3,3.16.29,14.46-.15,28.95.1,43.39-.67Z"/>
  </g>
</svg>