<?xml version="1.0" encoding="UTF-8"?>
<svg id="Capa_2" data-name="Capa 2" xmlns="http://www.w3.org/2000/svg" viewBox="0 0 21.07 32.78">
  <defs>
    <style>
      .cls-1 {
        fill: #000;
        stroke-width: 0px;
width: 50px;
      }
    </style>
  </defs>
  <g id="Capa_1-2" data-name="Capa 1">
    <path class="cls-1" d="M4.68,32.78h0c-2.59,0-4.68-2.1-4.68-4.68h0c0-2.59,2.1-4.68,4.68-4.68h3.34c.74,0,1.34.6,1.34,1.34v3.34c0,2.59-2.1,4.68-4.68,4.68ZM16.39,9.37h-3.34c-.74,0-1.34-.6-1.34-1.34V1.34c0-.74.6-1.34,1.34-1.34h3.34c2.59,0,4.68,2.1,4.68,4.68h0c0,2.59-2.1,4.68-4.68,4.68ZM4.68,0h3.34c.74,0,1.34.6,1.34,1.34v6.69c0,.74-.6,1.34-1.34,1.34h-3.34C2.1,9.37,0,7.27,0,4.68h0C0,2.1,2.1,0,4.68,0ZM4.68,11.71h3.34c.74,0,1.34.6,1.34,1.34v6.69c0,.74-.6,1.34-1.34,1.34h-3.34c-2.59,0-4.68-2.1-4.68-4.68h0c0-2.59,2.1-4.68,4.68-4.68ZM16.39,11.71c-2.59,0-4.68,2.1-4.68,4.68s2.1,4.68,4.68,4.68,4.68-2.1,4.68-4.68-2.1-4.68-4.68-4.68Z"/>
  </g>
</svg>