<?xml version="1.0" encoding="UTF-8"?>
<svg id="Capa_2" data-name="Capa 2" xmlns="http://www.w3.org/2000/svg" viewBox="0 0 33.6 33.6">
    <g id="Capa_1-2" data-name="Capa 1">
    <path class="cls-1" d="M31.47,0H2.13C.96,0,0,.96,0,2.13v29.33c0,1.18.96,2.13,2.13,2.13h29.33c1.18,0,2.13-.96,2.13-2.13V2.13c0-1.18-.96-2.13-2.13-2.13ZM18.4,25.75c0,3.2-1.88,4.65-4.61,4.65-2.48,0-4.26-1.66-4.99-3.2l2.52-1.52c.48.86,1.22,1.52,2.28,1.52s1.6-.4,1.6-1.94v-10.06h3.2v10.55ZM25.34,30.4c-2.83,0-4.44-1.43-5.34-3.2l2.4-1.6c.65,1.07,1.37,2.09,2.87,2.09,1.27,0,1.93-.63,1.93-1.51,0-1.04-.69-1.42-2.08-2.03l-.76-.33c-2.2-.94-3.67-2.11-3.67-4.6,0-2.29,1.75-4.03,4.47-4.03,1.94,0,3.33.68,4.34,2.44l-2.38,1.53c-.53-.94-1.09-1.31-1.97-1.31s-1.46.57-1.46,1.31c0,.92.57,1.28,1.88,1.85l.76.33c2.6,1.11,4.06,2.24,4.06,4.79,0,2.75-2.16,4.25-5.06,4.25Z"/>
  </g>
</svg>