<?xml version="1.0" encoding="UTF-8"?>
<svg id="Capa_2" data-name="Capa 2" xmlns="http://www.w3.org/2000/svg" viewBox="0 0 506.44 506.44">
  <defs>
    <style>
      .cls-1 {
        fill: #000;
        stroke-width: 0px;
      }
    </style>
  </defs>
  <g id="Capa_2-2" data-name="Capa 2">
    <g>
      <path class="cls-1" d="M256.86,221.09c-3.46-.02-3.46,104.89-3.46,104.89,0,8.16,4.85,29.85,9.66,30.43,0,0-3.5-135.32-6.2-135.32Z"/>
      <path class="cls-1" d="M253.22,0C113.37,0,0,113.37,0,253.22s113.37,253.22,253.22,253.22,253.22-113.37,253.22-253.22S393.07,0,253.22,0ZM277.37,357.44l-.36.32c-3.14,2.92-6.46,5.64-9.95,8.14l-.49.32c-2.85,12.82-5,25.78-6.43,38.84h-6.1c-1.7-18.47-4.12-35.9-4.17-36.27v.05l-.89-.63c-7.79-5.68-65.39-50.25-61.82-125.05,3.82-80.2,50.82-119.63,59.98-126.79,5.92-6.31,6.15-8.72,6.61-14.98.14.32.26.65.33.84,0,0,4.51,11.13,8.96,17.38,4.07,8.87,41.87,32.08,57.87,102.67h0c1.6,9.27,2.44,18.66,2.5,28.07.29,56.41-29.48,91.79-46.04,107.09Z"/>
    </g>
  </g>
</svg>