<?xml version="1.0" encoding="UTF-8"?>
<svg id="Capa_2" data-name="Capa 2" xmlns="http://www.w3.org/2000/svg" viewBox="0 0 3526.99 1831.35">
  <defs>
    <style>
      .cls-1 {
        fill: #fff;
        fill-rule: evenodd;
        stroke-width: 0px;
      }
    </style>
  </defs>
  <g id="Layer_1" data-name="Layer 1">
    <g>
      <path class="cls-1" d="M0,1668.39h116.4v-461.13l181.76,402.04c20.6,48.35,50.15,66.26,107.45,66.26s85.06-17.91,106.55-66.26l180.87-402.04v461.13h117.3v-461.13c0-44.77-17.91-66.26-55.52-77.9-88.64-26.86-147.74-3.58-174.6,56.41l-178.18,397.56-171.92-397.56c-25.97-59.99-85.96-83.27-175.5-56.41-36.71,11.64-54.62,33.13-54.62,77.9v461.13h0Z"/>
      <path class="cls-1" d="M907.04,1293.22h117.3v253.4c-.89,14.32,4.48,46.56,68.05,47.45,33.13.89,252.5,0,254.3,0v-302.64h117.3v414.57c0,102.08-126.25,124.46-185.35,125.35h-368.91v-77.9h369.8c75.22-8.06,66.26-45.66,66.26-58.2v-30.44h-248.03c-115.51-.9-189.83-51.94-190.72-110.14,0-5.37,2.69-259.67,0-261.46h0Z"/>
      <path class="cls-1" d="M3423.12,999.53c-71.63-1.79-127.15,5.38-173.71,25.07-13.43,5.37-34.92,5.37-36.72,22.38,7.17,7.17,8.06,18.81,14.33,28.65,10.75,17.91,29.55,42.08,46.56,54.62,18.8,14.33,37.61,28.65,57.3,41.19,34.92,21.49,74.32,34.02,108.35,55.52,19.7,12.53,39.39,28.65,59.09,42.08,9.85,7.16,16.12,18.8,28.65,23.28v-2.68c-6.27-8.06-8.06-19.7-14.32-28.65-8.95-8.95-17.91-17.02-26.86-25.97-25.97-34.92-58.2-65.36-93.12-90.43-28.65-19.7-91.33-46.56-102.97-79.69,0,0-.9-.89-1.79-1.79,19.7-1.79,42.98-8.95,61.78-14.33,30.44-8.06,58.2-6.27,89.54-14.32,14.32-3.58,28.65-8.06,42.98-12.54v-8.06c-16.12-16.12-27.76-37.61-44.77-52.83-45.66-39.4-95.81-77.9-147.74-110.13-27.76-17.91-63.58-29.55-93.12-44.77-10.75-5.38-28.65-8.06-34.92-17.01-16.12-19.7-25.08-45.66-36.71-68.95-25.96-49.25-51.04-103.86-73.42-155.8-16.12-34.92-25.96-69.85-45.66-102.08-92.23-152.22-192.51-244.44-346.52-334.88-33.13-18.8-72.52-26.86-114.61-36.71-22.38-.9-44.77-2.69-67.16-3.58-14.33-6.27-28.65-23.28-41.19-31.34-51.03-32.23-182.66-102.07-220.27-9.85-24.18,58.2,35.82,115.5,56.41,145.06,15.22,20.59,34.92,43.87,45.67,67.15,6.26,15.22,8.05,31.34,14.32,47.46,14.32,39.39,27.76,83.27,46.56,119.99,9.85,18.8,20.59,38.5,33.13,55.51,7.16,9.85,19.69,14.33,22.39,30.45-12.54,17.91-13.43,44.77-20.6,67.16-32.23,101.18-19.69,226.53,25.97,300.85,14.32,22.39,48.35,71.64,94.02,52.83,40.29-16.12,31.34-67.15,42.98-111.93,2.68-10.75.9-17.91,6.27-25.07v1.79c12.54,25.07,25.07,49.25,36.71,74.32,27.76,43.87,76.11,89.54,116.4,119.99,21.49,16.12,38.51,43.87,65.37,53.72v-2.69h-1.79c-5.38-8.06-13.43-11.64-20.59-17.91-16.12-16.12-34.03-35.82-46.56-53.72-37.61-50.14-70.74-105.66-100.29-162.96-14.33-27.76-26.86-58.2-38.5-85.96-5.38-10.75-5.38-26.86-14.33-32.23-13.43,19.69-33.12,36.71-42.98,60.89-17.01,38.5-18.8,85.96-25.07,135.2-3.58.9-1.79,0-3.58,1.79-28.65-7.16-38.5-36.71-49.25-61.78-26.86-63.57-31.34-165.65-8.05-239.07,6.27-18.81,33.13-77.9,22.38-95.81-5.38-17.02-23.28-26.86-33.13-40.29-11.64-17.02-24.18-38.5-32.23-57.31-21.49-50.14-32.24-105.66-55.52-155.8-10.75-23.28-29.55-47.46-44.77-68.94-17.02-24.18-35.82-41.19-49.25-69.85-4.48-9.85-10.75-25.96-3.58-36.71,1.79-7.16,5.37-9.85,12.54-11.64,11.64-9.85,44.77,2.69,56.41,8.06,33.13,13.43,60.89,25.97,88.65,44.77,12.53,8.95,25.96,25.97,42.08,30.45h18.81c28.65,6.27,60.89,1.79,87.75,9.85,47.45,15.22,90.43,37.61,128.94,61.78,117.3,74.32,214,179.98,279.37,306.23,10.74,20.59,15.22,39.4,25.07,60.89,18.8,43.88,42.08,88.65,60.89,131.62,18.8,42.08,36.71,85.06,63.57,119.99,13.43,18.8,67.16,28.65,91.33,38.5,17.91,8.06,45.67,15.22,61.78,25.07,30.44,18.8,60.89,40.29,89.54,60.89,14.32,10.75,59.09,33.13,61.78,51.04h0Z"/>
      <path class="cls-1" d="M2509.81,221.42c-15.22,0-25.96,1.79-36.71,4.48v1.79h1.79c7.16,14.32,19.69,24.18,28.65,36.71,7.17,14.33,13.43,28.65,20.6,42.98.89-.9,1.79-1.79,1.79-1.79,12.54-8.95,18.81-23.28,18.81-44.77-5.38-6.27-6.27-12.54-10.75-18.81-5.37-8.95-17.02-13.43-24.18-20.59h0Z"/>
      <path class="cls-1" d="M1553.52,1668.39h336.67c39.4,0,77.01-8.06,107.45-22.39,51.04-23.28,75.22-54.62,75.22-95.81v-85.96c0-33.13-27.76-64.47-83.27-85.96-28.65-10.74-64.47-17.01-99.39-17.01h-141.47c-47.45,0-69.84-14.33-76.11-45.67-.9-3.58-.9-7.16-.9-10.74v-52.83c0-2.69,0-6.27.9-9.85,6.27-24.18,18.8-30.45,59.99-34.92h344.73v-77.9h-327.72c-47.45,0-72.53,2.69-94.91,9.85-68.95,21.49-99.39,55.51-99.39,115.5v68.05c0,52.82,59.1,97.59,159.39,108.34,10.74.89,22.38.89,34.02.89h120.88c4.48,0,8.95,0,12.54.9,36.71,3.58,52.83,9.85,63.57,23.28,7.16,7.16,8.95,13.43,8.95,21.49v68.05c0,8.06-5.37,18.81-16.12,27.76-10.75,8.95-27.76,15.22-50.15,16.12-4.48,0-7.16.89-11.64.89h-323.24v77.9h0Z"/>
      <path class="cls-1" d="M2801.71,1533.19c0,79.69,59.99,124.46,179.97,133.41,11.64.9,22.38,1.79,34.02,1.79h304.44v-77.9h-307.13c-68.05,0-94.02-17.01-94.02-58.2v-402.93h-117.3v403.83h0Z"/>
      <path class="cls-1" d="M2147.17,1536.77v-277.57c0-70.73,50.14-113.72,147.74-127.15,10.75-.89,21.49-1.79,31.34-1.79h222.06c11.65,0,21.49.89,33.13,1.79,97.6,13.43,146.85,56.41,146.85,127.15v277.57c0,57.31-20.59,87.75-68.95,108.35l114.61,103.86h-135.2l-93.12-84.16-94.02,5.37h-125.36c-20.59,0-43.88-2.68-68.05-8.95-74.32-20.59-111.03-59.99-111.03-124.46h0ZM2273.42,1530.5c0,3.58,1.79,7.16,2.69,11.64,6.26,32.23,36.71,50.14,83.27,50.14h105.66l-96.7-87.75h135.2l85.06,77c16.12-8.95,25.97-21.49,29.55-37.6.89-3.58.89-8.06.89-11.64v-265.94c0-3.58,0-7.16-.89-10.74-6.27-30.45-36.71-47.46-82.38-47.46h-176.4c-51.93,0-85.96,22.38-85.96,58.2v264.15h0Z"/>
      <path class="cls-1" d="M3373.88,1669.29h17.01v-65.37h22.38v-13.43h-62.68v13.43h23.28v65.37h0ZM3503.71,1669.29h16.12v-78.8h-24.18l-19.7,53.72-21.49-53.72h-23.28v78.8h15.22v-59.99h.89l22.38,59.99h11.65l22.38-59.99h0v59.99h0Z"/>
    </g>
  </g>
</svg>