<?xml version="1.0" encoding="UTF-8"?>
<svg id="Capa_2" data-name="Capa 2" xmlns="http://www.w3.org/2000/svg" viewBox="0 0 664.95 407.28">
  <defs>
    <style>
      .cls-1 {
        fill: #11181c;
        stroke-width: 0px;
      }
    </style>
  </defs>
  <g id="Layer_1" data-name="Layer 1">
    <g>
      <path class="cls-1" d="M327.91,407.28c-2.19,0-4.36-.57-6.27-1.68l-19.97-11.82c-2.98-1.67-1.52-2.26-.54-2.6,3.98-1.38,4.79-1.7,9.03-4.11.44-.25,1.03-.15,1.49.11l15.34,9.11c.56.31,1.34.31,1.85,0l59.82-34.53c.56-.32.91-.96.91-1.62v-69.04c0-.68-.36-1.31-.93-1.65l-59.8-34.5c-.55-.32-1.29-.32-1.84,0l-59.79,34.51c-.58.33-.95.98-.95,1.64v69.04c0,.66.37,1.29.94,1.6l16.39,9.47c8.89,4.44,14.34-.79,14.34-6.05v-68.16c0-.97.77-1.73,1.74-1.73h7.59c.95,0,1.73.76,1.73,1.73v68.16c0,11.87-6.46,18.67-17.71,18.67-3.46,0-6.18,0-13.78-3.74l-15.69-9.03c-3.87-2.24-6.27-6.43-6.27-10.91v-69.04c0-4.48,2.4-8.67,6.27-10.9l59.82-34.57c3.78-2.14,8.82-2.14,12.57,0l59.82,34.57c3.87,2.24,6.28,6.42,6.28,10.9v69.04c0,4.49-2.41,8.66-6.28,10.91l-59.82,34.54c-1.91,1.11-4.08,1.68-6.3,1.68"/>
      <path class="cls-1" d="M346.39,359.72c-26.18,0-31.66-12.01-31.66-22.09,0-.96.77-1.72,1.73-1.72h7.74c.86,0,1.58.62,1.72,1.47,1.17,7.87,4.65,11.85,20.48,11.85,12.6,0,17.97-2.85,17.97-9.54,0-3.85-1.52-6.72-21.11-8.63-16.37-1.62-26.49-5.23-26.49-18.33,0-12.07,10.17-19.27,27.23-19.27,19.17,0,28.65,6.65,29.85,20.93.04.49-.13.96-.45,1.33-.33.34-.79.55-1.27.55h-7.76c-.81,0-1.52-.57-1.68-1.35-1.86-8.28-6.39-10.93-18.68-10.93-13.76,0-15.36,4.79-15.36,8.38,0,4.35,1.89,5.62,20.46,8.08,18.39,2.43,27.12,5.87,27.12,18.79s-10.87,20.5-29.83,20.5"/>
      <path class="cls-1" d="M486.31,22.49L448.31.63c-2.55-1.47-4.64-.26-4.64,2.68v103.86l-19.53-11.28c-2.57-1.48-6.76-1.48-9.32,0l-62.15,35.88c-2.56,1.48-4.66,5.11-4.66,8.07v71.76c0,2.96,2.1,6.59,4.66,8.07l62.15,35.88c2.56,1.48,6.76,1.48,9.32,0l62.15-35.88c2.56-1.48,4.66-5.11,4.66-8.07V30.52c0-2.94-2.09-6.55-4.64-8.02ZM443.37,187.72c0,.99-.7,2.2-1.56,2.7l-20.77,11.99c-.86.49-2.26.49-3.12,0l-20.77-11.99c-.86-.5-1.56-1.71-1.56-2.7v-23.99c0-.99.7-2.2,1.56-2.7l20.77-11.99c.86-.5,2.26-.5,3.12,0l20.77,11.99c.86.5,1.56,1.71,1.56,2.7v23.99Z"/>
      <path class="cls-1" d="M138.27,131.28l-62.15-35.88c-2.57-1.48-6.76-1.48-9.32,0L4.66,131.28c-2.56,1.48-4.66,5.11-4.66,8.07v97.41c0,2.95,2.09,4.15,4.64,2.68l38.31-22.09c2.55-1.47,4.64-5.08,4.64-8.03v-46.09c0-.99.7-2.2,1.56-2.7l20.77-12c.86-.49,2.26-.49,3.12,0l20.77,12c.86.49,1.56,1.71,1.56,2.7v46.09c0,2.94,2.08,6.55,4.63,8.03l38.31,22.09c2.55,1.47,4.64.26,4.64-2.68v-97.41c0-2.96-2.1-6.59-4.66-8.07Z"/>
      <g>
        <path class="cls-1" d="M664.87,138.82c-.03-.18-.07-.36-.11-.54h0s-.02-.08-.03-.12c-.09-.4-.21-.8-.36-1.2-.01-.03-.02-.06-.03-.09h0c-.11-.3-.23-.58-.37-.87h0c-.19-.4-.41-.79-.65-1.17-.05-.08-.11-.17-.16-.25-.16-.23-.31-.45-.48-.66-.14-.17-.27-.34-.42-.51-.09-.1-.18-.2-.27-.29-.22-.23-.45-.45-.69-.65-.05-.05-.11-.09-.17-.13-.27-.22-.55-.41-.83-.58l-14.24-8.22-47.91-27.66c-2.56-1.48-6.76-1.48-9.32,0l-62.15,35.88c-2.56,1.48-4.66,5.11-4.66,8.07v71.76c0,2.96,2.1,6.59,4.66,8.07l19.04,11,43.06,24.89c2.55,1.47,6.72,1.47,9.27,0l38.28-22.13c2.55-1.47,2.55-3.88,0-5.35l-65.17-37.66c-.86-.5-1.56-1.71-1.56-2.7v-23.99c0-.99.7-2.2,1.56-2.7l20.77-11.99c.86-.5,2.26-.5,3.12,0l20.77,11.99c.86.5,1.56,1.71,1.56,2.7v18.47c0,2.95,2.09,4.15,4.64,2.68l19.93-11.49h0l18.38-10.59c2.55-1.47,4.64-5.08,4.64-8.02v-14.93c0-.33-.03-.68-.08-1.02Z"/>
        <path class="cls-1" d="M594.37,158.99c-.48-.28-1.28-.28-1.76,0l-11.76,6.79c-.49.28-.88.97-.88,1.53v13.58c0,.56.4,1.25.88,1.53l11.76,6.79c.48.28,1.28.28,1.76,0l11.76-6.79c.48-.28.88-.97.88-1.53v-13.58c0-.56-.4-1.25-.88-1.53l-11.76-6.79Z"/>
      </g>
      <g>
        <path class="cls-1" d="M240.81,96.02l-62.15,35.88c-2.56,1.48-4.66,5.11-4.66,8.07v71.76c0,2.96,2.1,6.59,4.66,8.07l62.15,35.88c2.56,1.48,6.76,1.48,9.32,0l62.15-35.88c2.56-1.48,4.66-5.11,4.66-8.07v-71.76c0-2.96-2.1-6.59-4.66-8.07l-62.15-35.88c-2.56-1.48-6.76-1.48-9.32,0Z"/>
        <path class="cls-1" d="M174.94,211.47c-1.47,2.55-.59,5.84,1.96,7.31l65.67,37.91c2.55,1.47,5.84.59,7.31-1.96l66.11-114.51c1.47-2.55.59-5.84-1.96-7.31l-65.67-37.91c-2.55-1.47-5.84-.59-7.31,1.96l-66.12,114.51Z"/>
        <path class="cls-1" d="M316,211.47c1.47,2.55.59,5.84-1.96,7.31l-65.67,37.91c-2.55,1.47-5.84.59-7.31-1.96l-66.12-114.51c-1.47-2.55-.59-5.84,1.96-7.31l65.67-37.91c2.55-1.47,5.84-.59,7.31,1.96l66.11,114.51Z"/>
      </g>
    </g>
  </g>
</svg>