<?xml version="1.0" encoding="UTF-8"?>
<svg id="Capa_2" data-name="Capa 2" xmlns="http://www.w3.org/2000/svg" viewBox="0 0 48 26">
    <g id="Capa_1-2" data-name="Capa 1">
    <path class="cls-1" d="M24,0C10.54,0,0,5.71,0,13s10.54,13,24,13,24-5.71,24-13S37.46,0,24,0ZM21.51,4h2.62l-.83,4h2.34c1.48,0,2.48.21,3.05.73.55.51.72,1.35.5,2.5l-1.04,4.78h-2.66l.96-4.42c.12-.61.07-1.03-.13-1.25s-.65-.33-1.32-.33h-2.1l-1.27,6h-2.62l2.51-12ZM10,8h5.33c2.54,0,4.08,1.7,3.48,4.25-.7,2.95-2.57,3.75-6.02,3.75h-1.65l-.52,3h-2.65l2.03-11ZM31,8h5.33c2.54,0,4.08,1.7,3.48,4.25-.7,2.95-2.57,3.75-6.02,3.75h-1.65l-.52,3h-2.65l2.03-11ZM12.27,10l-.75,4h1.71c1.48,0,2.86-.17,3.09-2.38.09-.86-.27-1.62-1.98-1.62h-2.06ZM33.27,10l-.75,4h1.71c1.48,0,2.86-.17,3.09-2.38.09-.86-.27-1.62-1.98-1.62h-2.06Z"/>
  </g>
</svg>