<?xml version="1.0" encoding="UTF-8"?>
<svg id="Capa_2" data-name="Capa 2" xmlns="http://www.w3.org/2000/svg" viewBox="0 0 539.51 480.1">
  <defs>
    <style>
      .cls-1 {
        fill: #11181c;
        stroke-width: 0px;
      }
    </style>
  </defs>
  <g id="Layer_1" data-name="Layer 1">
    <g>
      <path class="cls-1" d="M318.16,240.05c0,26.73-21.67,48.41-48.4,48.41s-48.4-21.68-48.4-48.41,21.67-48.4,48.4-48.4,48.4,21.67,48.4,48.4Z"/>
      <path class="cls-1" d="M269.75,130.05C120.77,130.05,0,179.3,0,240.05s120.77,110,269.75,110,269.75-49.25,269.75-110-120.78-110-269.75-110ZM452.02,297.05c-48.32,19.7-113.05,30.55-182.27,30.55s-133.95-10.85-182.27-30.55c-40.73-16.61-65.03-37.91-65.03-57s24.31-40.39,65.03-56.99c48.32-19.7,113.05-30.55,182.27-30.55s133.95,10.85,182.27,30.55c40.72,16.61,65.03,37.91,65.03,56.99s-24.31,40.39-65.03,57Z"/>
      <path class="cls-1" d="M174.49,185.05c-74.49,129.02-92.23,258.23-39.62,288.61,52.61,30.38,155.64-49.59,230.14-178.61C439.5,166.02,457.23,36.81,404.63,6.44c-52.61-30.38-155.65,49.59-230.14,178.61ZM410.24,110.7c-7.1,51.7-30.06,113.18-64.67,173.12-34.61,59.95-76.38,110.58-117.6,142.58-34.74,26.96-65.35,37.36-81.87,27.82-16.53-9.54-22.82-41.25-16.85-84.82,7.1-51.7,30.07-113.18,64.68-173.13,34.61-59.94,76.37-110.57,117.59-142.57,34.75-26.97,65.35-37.37,81.88-27.83,16.53,9.54,22.82,41.25,16.84,84.82Z"/>
      <path class="cls-1" d="M134.88,6.44c-52.61,30.37-34.88,159.58,39.62,288.61,74.49,129.02,177.53,208.99,230.14,178.61,52.6-30.38,34.87-159.59-39.62-288.61C290.52,56.03,187.48-23.93,134.88,6.44ZM146.1,25.88c16.53-9.54,47.13.86,81.88,27.83,41.22,32,82.99,82.62,117.59,142.57,34.61,59.95,57.58,121.43,64.68,173.13,5.98,43.57-.31,75.28-16.84,84.82-16.53,9.54-47.13-.86-81.88-27.82-41.22-32-82.98-82.63-117.59-142.58-34.61-59.94-57.57-121.42-64.68-173.12-5.97-43.57.31-75.28,16.84-84.82Z"/>
    </g>
  </g>
</svg>