<?xml version="1.0" encoding="UTF-8"?>
<svg id="Capa_2" data-name="Capa 2" xmlns="http://www.w3.org/2000/svg" viewBox="0 0 427.48 427.48">
  <defs>
    <style>
      .cls-1 {
        fill: #fff;
      }

      .cls-1, .cls-2 {
        stroke-width: 0px;
      }

      .cls-2 {
        fill: #2fde51;
      }
    </style>
  </defs>
  <g id="Layer_3" data-name="Layer 3">
    <g>
      <rect class="cls-2" y="0" width="427.48" height="427.48" rx="89.99" ry="89.99"/>
      <path class="cls-1" d="M122.74,306.42c11.91,7.13,13.03,13.09,4.92,24.61-2.77,3.93-5.92,7.6-8.9,11.38-1.35,1.72-4.17,3.09-2.59,5.73,1.41,2.35,4.2,1.43,6.4,1.17,6.78-.79,12.52-4.69,18.87-6.67,12.75-3.97,22.88-15.26,37.97-12.82,44.54,7.22,86.83,1.37,125.6-22.99,38.37-24.11,60.56-58.02,62.8-102.33-1.94-46.78-24.04-79.93-61.34-103.08-34.5-21.42-72.16-28.79-112.98-24.36-38.22,4.15-70.67,18.6-98.63,44.52-37.06,34.34-46.23,92.58-20.86,135.97,11.98,20.48,28.36,36.67,48.74,48.87Z"/>
    </g>
  </g>
</svg>